# xmcd
#
# Track frame offsets: 
#        150
#        42960
#        67867
#        105785
#        133787
#        165135
#
# Disc length: 2519 seconds
#
# Revision: 2
# Processed by: cddbd v1.5.2PL0 Copyright (c) Steve Scherf et al.
# Submitted via: ExactAudioCopy v0.99pb5
#
DISCID=3b09d506
DTITLE=Various Artist - Jazz At The Pawnshop (Vol.2)
DYEAR=1900
DGENRE=Jazz
TTITLE0=Gershwin - Lady Be Good
TTITLE1=Van Heusen-Burke - Here Is That Rainy Day
TTITLE2=Charlie Parker - Barbados
TTITLE3=Hamilton-James-Dennis - How High The Moon
TTITLE4=Paul Desmond - Take Five
TTITLE5=Warren-James-Dennis - Everything Happens To Me
EXTD=
EXTT0=
EXTT1=
EXTT2=
EXTT3=
EXTT4=
EXTT5=
PLAYORDER=
